# xmcd CD database file
#
# Track frame offsets:
#	150
#	24087
#	48975
#
# Disc length: 974 seconds
#
# Revision: 0
# Processed by: cddbd v1.5.1PL2 Copyright (c) Steve Scherf et al.
# Submitted via: CDex 1.51
#
DISCID=1603cc03
DTITLE=本田美奈子 - 僕の部屋で暮らそう
DYEAR=1995
DGENRE=JPop
TTITLE0=僕の部屋で暮らそう
TTITLE1=かげろう<Ｒｅ−Ｍｉｘ>
TTITLE2=僕の部屋で暮らそう（オリジナル・カラオケ）
EXTD=YEAR: 1995/7/26
EXTT0=
EXTT1=
EXTT2=
PLAYORDER=
